<svg width="182" height="40" viewBox="0 0 182 40" fill="none" xmlns="http://www.w3.org/2000/svg">
<g clip-path="url(#clip0_2945_982)">
<path d="M28.1183 14.1369L14.6028 27.6523H0.465984L28.1183 0V14.1369Z" fill="black"/>
<path d="M28.1183 14.1369L14.6028 27.6523H0.465984L28.1183 0V14.1369Z" fill="url(#paint0_linear_2945_982)"/>
<path d="M40 26.4845L26.4846 40H12.3477L40 12.3477V26.4845Z" fill="black"/>
<path d="M40 26.4845L26.4846 40H12.3477L40 12.3477V26.4845Z" fill="url(#paint1_linear_2945_982)"/>
</g>
<rect x="1" y="1" width="38" height="38" rx="19" stroke="white" stroke-width="2"/>
<path d="M75.968 28.828L79.376 11.26H83.048L79.4 29.5H72.416L69.752 12.052L67.088 29.5H60.104L56.456 11.26H60.128L63.536 28.828L66.296 11.26H73.208L75.968 28.828ZM86.8679 28.924L86.8199 28.948C85.7879 28.372 84.9959 27.58 84.4439 26.548C83.8919 25.516 83.6279 24.34 83.6279 23.02C83.6279 21.7 83.9159 20.524 84.4679 19.492C85.0199 18.46 85.8119 17.644 86.8439 17.068C87.8759 16.492 89.0759 16.204 90.4439 16.204C91.8119 16.204 93.0119 16.492 94.0439 17.068C95.0759 17.644 95.8679 18.436 96.4199 19.468C96.9719 20.5 97.2599 21.676 97.2599 22.996C97.2599 24.316 96.9959 25.492 96.4439 26.524C95.8919 27.556 95.0999 28.348 94.0679 28.924C93.0359 29.5 91.8359 29.788 90.4679 29.788C89.0999 29.788 87.8999 29.5 86.8679 28.924ZM92.6759 26.188C93.2039 25.42 93.4679 24.364 93.4679 23.02C93.4679 21.676 93.2039 20.62 92.6759 19.852C92.1479 19.084 91.4039 18.7 90.4199 18.7C89.4359 18.7 88.6919 19.084 88.1639 19.852C87.6359 20.62 87.3719 21.676 87.3719 23.02C87.3719 24.364 87.6359 25.42 88.1639 26.188C88.6919 26.956 89.4359 27.34 90.4199 27.34C91.4039 27.34 92.1479 26.956 92.6759 26.188ZM103.278 19.876L103.302 19.852C103.566 18.748 104.07 17.86 104.79 17.188C105.51 16.516 106.47 16.18 107.646 16.18V19.78H106.71C105.534 19.78 104.67 19.996 104.118 20.452C103.566 20.908 103.302 21.676 103.302 22.756V29.5H99.6298V16.468H103.278V19.876ZM113.263 29.5H109.591V11.26H113.263V29.5ZM125.412 11.26L129.06 11.308V29.548H125.436V26.908C125.076 27.796 124.524 28.492 123.756 29.02C122.988 29.548 122.1 29.812 121.116 29.812C120.06 29.812 119.124 29.524 118.308 28.948C117.492 28.372 116.868 27.556 116.412 26.524C115.956 25.492 115.74 24.316 115.74 23.02C115.74 21.724 115.956 20.548 116.412 19.516C116.868 18.484 117.492 17.668 118.308 17.068C119.124 16.468 120.06 16.18 121.116 16.18C121.86 16.18 122.532 16.324 123.108 16.612C123.684 16.9 124.164 17.284 124.548 17.788C124.932 18.292 125.22 18.844 125.412 19.444V11.26ZM124.764 26.212V26.188C125.292 25.42 125.556 24.364 125.556 23.02C125.556 21.676 125.292 20.62 124.764 19.852C124.236 19.084 123.468 18.7 122.484 18.7C121.5 18.7 120.756 19.084 120.228 19.852C119.7 20.62 119.436 21.676 119.436 23.044C119.436 24.388 119.7 25.444 120.228 26.212C120.756 26.98 121.5 27.364 122.484 27.364C123.468 27.364 124.236 26.98 124.764 26.212ZM135.81 29.5H132.138V11.26H135.81V29.5ZM151.343 24.076H142.007C142.127 25.132 142.439 25.924 142.943 26.476C143.447 27.028 144.095 27.292 144.887 27.292C145.559 27.292 146.087 27.148 146.495 26.884C146.903 26.62 147.215 26.212 147.455 25.66H151.151C150.719 27.028 149.951 28.06 148.871 28.756C147.791 29.452 146.447 29.812 144.863 29.812C143.543 29.812 142.391 29.524 141.383 28.948C140.375 28.372 139.607 27.556 139.055 26.524C138.503 25.492 138.239 24.316 138.239 22.996C138.239 21.676 138.527 20.5 139.079 19.468C139.631 18.436 140.423 17.644 141.431 17.068C142.439 16.492 143.591 16.204 144.887 16.204C146.207 16.204 147.359 16.492 148.343 17.068C149.327 17.644 150.095 18.436 150.623 19.468C151.151 20.5 151.415 21.7 151.415 23.068C151.415 23.38 151.391 23.716 151.343 24.076ZM142.991 19.42L142.967 19.444C142.463 19.924 142.151 20.668 142.007 21.652H147.695C147.599 20.74 147.287 20.02 146.783 19.492C146.279 18.964 145.631 18.7 144.863 18.7C144.119 18.7 143.495 18.94 142.991 19.42ZM164.018 16.828L163.97 16.804C164.618 17.236 165.098 17.836 165.41 18.604C165.722 19.372 165.89 20.236 165.89 21.22V21.268V29.476H162.218V22.06V22.012C162.218 20.908 162.026 20.092 161.618 19.54C161.21 18.988 160.61 18.724 159.818 18.724C159.05 18.724 158.45 18.988 158.042 19.54C157.634 20.092 157.418 20.932 157.418 22.06V29.476H153.746V16.444H157.394V19.108C157.706 18.22 158.21 17.5 158.906 16.972C159.602 16.444 160.49 16.18 161.57 16.18C162.554 16.18 163.37 16.396 164.018 16.828ZM170.016 28.732L169.992 28.852C168.912 28.132 168.264 27.076 168.048 25.684H171.744C171.864 26.284 172.152 26.716 172.608 26.98C173.064 27.244 173.616 27.388 174.264 27.388C175.056 27.388 175.68 27.268 176.112 27.028C176.544 26.788 176.76 26.452 176.76 26.02C176.76 25.756 176.688 25.516 176.544 25.324C176.4 25.132 176.16 24.964 175.824 24.82C175.488 24.676 175.032 24.532 174.432 24.388L172.128 23.884C170.856 23.62 169.896 23.188 169.248 22.588C168.6 21.988 168.288 21.22 168.288 20.26C168.288 19.468 168.552 18.748 169.056 18.124C169.56 17.5 170.256 17.02 171.12 16.684C171.984 16.348 172.944 16.18 173.976 16.18C174.984 16.18 175.896 16.324 176.736 16.612C177.576 16.9 178.272 17.308 178.848 17.86C179.424 18.412 179.808 19.108 180 19.924H176.304C176.16 19.516 175.872 19.204 175.464 18.988C175.056 18.772 174.576 18.652 174.024 18.652C173.4 18.652 172.872 18.772 172.464 18.988C172.056 19.204 171.84 19.516 171.84 19.9C171.84 20.26 172.008 20.524 172.344 20.716C172.68 20.908 173.208 21.076 173.952 21.244L176.256 21.748C177.624 22.06 178.632 22.516 179.28 23.14C179.928 23.764 180.264 24.604 180.264 25.636C180.264 26.5 180 27.244 179.472 27.868C178.944 28.492 178.224 28.972 177.288 29.308C176.352 29.644 175.296 29.812 174.12 29.812C172.464 29.812 171.096 29.452 170.016 28.732Z" fill="white"/>
<defs>
<linearGradient id="paint0_linear_2945_982" x1="14.0592" y1="13.8262" x2="20.8756" y2="21.8967" gradientUnits="userSpaceOnUse">
<stop stop-color="#19FB9B"/>
<stop offset="1" stop-color="#6E1FCE"/>
</linearGradient>
<linearGradient id="paint1_linear_2945_982" x1="25.9409" y1="26.1738" x2="32.7574" y2="34.2443" gradientUnits="userSpaceOnUse">
<stop stop-color="#C485FF"/>
<stop offset="1" stop-color="#6E1FCE"/>
</linearGradient>
<clipPath id="clip0_2945_982">
<rect width="40" height="40" rx="20" fill="white"/>
</clipPath>
</defs>
</svg>
