<svg width="366" height="102" viewBox="0 0 366 102" fill="none" xmlns="http://www.w3.org/2000/svg">
<rect y="38.8602" width="4.22222" height="24.7661" rx="2.11111" fill="#3A1352"/>
<rect x="8.22223" y="44.385" width="4.22222" height="13.7166" rx="2.11111" fill="#3A1352"/>
<rect x="16.4445" y="44.385" width="4.22222" height="13.7166" rx="2.11111" fill="#3A1352"/>
<rect x="24.6667" y="33.426" width="4.22222" height="35.6345" rx="2.11111" fill="#3A1352"/>
<rect x="32.8889" y="39.6088" width="4.22222" height="23.269" rx="2.11111" fill="#3A1352"/>
<rect x="41.1111" y="27.2433" width="4.22222" height="48" rx="2.11111" fill="#3A1352"/>
<rect x="49.3333" y="31.3639" width="4.22222" height="39.7588" rx="2.11111" fill="#3A1352"/>
<rect x="57.5555" y="40.4386" width="4.22222" height="21.6094" rx="2.11111" fill="#3A1352"/>
<rect x="65.7778" y="27.2433" width="4.22222" height="48" rx="2.11111" fill="#3A1352"/>
<rect x="74" y="31.2633" width="4.22222" height="39.96" rx="2.11111" fill="#3A1352"/>
<rect x="82.2222" y="20.3124" width="4.22222" height="61.8618" rx="2.11111" fill="#3A1352"/>
<rect x="90.4445" y="31.2633" width="4.22222" height="39.96" rx="2.11111" fill="#3A1352"/>
<rect x="98.6666" y="25.7878" width="4.22222" height="50.9109" rx="2.11111" fill="#3A1352"/>
<rect x="106.889" y="31.2633" width="4.22222" height="39.96" rx="2.11111" fill="#3A1352"/>
<rect x="115.111" y="31.2633" width="4.22222" height="39.96" rx="2.11111" fill="#3A1352"/>
<rect x="123.333" y="37.842" width="4.22222" height="26.8025" rx="2.11111" fill="#3A1352"/>
<rect x="131.556" y="37.842" width="4.22222" height="26.8025" rx="2.11111" fill="#3A1352"/>
<rect x="139.778" y="30.3347" width="4.22222" height="41.8171" rx="2.11111" fill="#3A1352"/>
<rect x="148" y="30.3347" width="4.22222" height="41.8171" rx="2.11111" fill="#3A1352"/>
<rect x="156.222" y="38.0706" width="4.22222" height="26.3455" rx="2.11111" fill="#3A1352"/>
<rect x="164.444" y="44.385" width="4.22222" height="13.7166" rx="2.11111" fill="#3A1352"/>
<rect x="172.667" y="31.4893" width="4.22222" height="39.5081" rx="2.11111" fill="#3A1352"/>
<g filter="url(#filter0_d_2827_311)">
<rect x="180.889" y="27.2433" width="4.22222" height="48" rx="2.11111" fill="#F2BEFF"/>
</g>
<rect x="189.111" y="22.0912" width="4.22222" height="58.3042" rx="2.11111" fill="#FFA7BC"/>
<rect x="197.333" y="37.6417" width="4.22222" height="27.2031" rx="2.11111" fill="#FF70B5"/>
<rect x="205.556" y="37.6417" width="4.22222" height="27.2031" rx="2.11111" fill="#FF3294"/>
<rect x="213.778" y="27.2433" width="4.22222" height="48" rx="2.11111" fill="#F845DB"/>
<rect x="222" y="15.0244" width="4.22222" height="72.4377" rx="2.11111" fill="#CA59FF"/>
<rect x="230.222" y="27.2433" width="4.22222" height="48" rx="2.11111" fill="#CA59FF"/>
<rect x="238.445" y="15.0244" width="4.22222" height="72.4377" rx="2.11111" fill="#CA59FF"/>
<rect x="246.667" y="20.4608" width="4.22222" height="61.5649" rx="2.11111" fill="#CA59FF"/>
<rect x="254.889" y="9.36145" width="4.22222" height="83.7637" rx="2.11111" fill="#CA59FF"/>
<rect x="263.111" y="27.2433" width="4.22222" height="48" rx="2.11111" fill="#CA59FF"/>
<rect x="271.333" y="41.6681" width="4.22222" height="19.1504" rx="2.11111" fill="#CA59FF"/>
<rect x="279.556" y="37.0863" width="4.22222" height="28.314" rx="2.11111" fill="#CA59FF"/>
<rect x="287.778" y="37.0863" width="4.22222" height="28.314" rx="2.11111" fill="#CA59FF"/>
<rect x="296" y="27.2433" width="4.22222" height="48" rx="2.11111" fill="#CA59FF"/>
<rect x="304.222" y="0.602417" width="4.22222" height="101.282" rx="2.11111" fill="#CA59FF"/>
<rect x="312.445" y="11.4785" width="4.22222" height="79.5295" rx="2.11111" fill="#CA59FF"/>
<rect x="320.667" y="27.2433" width="4.22222" height="48" rx="2.11111" fill="#CA59FF"/>
<rect x="328.889" y="33.426" width="4.22222" height="35.6345" rx="2.11111" fill="#CA59FF"/>
<rect x="337.111" y="33.426" width="4.22222" height="35.6345" rx="2.11111" fill="#CA59FF"/>
<rect x="345.333" y="38.2338" width="4.22222" height="26.019" rx="2.11111" fill="#CA59FF"/>
<rect x="353.556" y="38.2338" width="4.22222" height="26.019" rx="2.11111" fill="#CA59FF"/>
<rect x="361.778" y="33.426" width="4.22222" height="35.6345" rx="2.11111" fill="#CA59FF"/>
<defs>
<filter id="filter0_d_2827_311" x="164.889" y="11.2433" width="36.2222" height="80" filterUnits="userSpaceOnUse" color-interpolation-filters="sRGB">
<feFlood flood-opacity="0" result="BackgroundImageFix"/>
<feColorMatrix in="SourceAlpha" type="matrix" values="0 0 0 0 0 0 0 0 0 0 0 0 0 0 0 0 0 0 127 0" result="hardAlpha"/>
<feOffset/>
<feGaussianBlur stdDeviation="8"/>
<feComposite in2="hardAlpha" operator="out"/>
<feColorMatrix type="matrix" values="0 0 0 0 1 0 0 0 0 1 0 0 0 0 1 0 0 0 0.5 0"/>
<feBlend mode="normal" in2="BackgroundImageFix" result="effect1_dropShadow_2827_311"/>
<feBlend mode="normal" in="SourceGraphic" in2="effect1_dropShadow_2827_311" result="shape"/>
</filter>
</defs>
</svg>
