<svg width="24" height="25" viewBox="0 0 24 25" fill="none" xmlns="http://www.w3.org/2000/svg">
<path fill-rule="evenodd" clip-rule="evenodd" d="M12.0063 6.22729C8.69264 6.22729 6.00635 8.91359 6.00635 12.2273C6.00635 15.541 8.69264 18.2273 12.0063 18.2273C15.3201 18.2273 18.0063 15.541 18.0063 12.2273C18.0063 8.91359 15.3201 6.22729 12.0063 6.22729ZM4.50635 12.2273C4.50635 8.08516 7.86421 4.72729 12.0063 4.72729C16.1485 4.72729 19.5063 8.08516 19.5063 12.2273C19.5063 16.3694 16.1485 19.7273 12.0063 19.7273C7.86421 19.7273 4.50635 16.3694 4.50635 12.2273Z" fill="#9F9EA4"/>
<path fill-rule="evenodd" clip-rule="evenodd" d="M12.0063 7.35229C12.4206 7.35229 12.7563 7.68808 12.7563 8.10229V11.7638L15.3418 13.0565C15.7122 13.2417 15.8624 13.6922 15.6772 14.0627C15.4919 14.4332 15.0414 14.5834 14.6709 14.3981L11.6709 12.8981C11.4168 12.7711 11.2563 12.5114 11.2563 12.2273V8.10229C11.2563 7.68808 11.5921 7.35229 12.0063 7.35229Z" fill="#9F9EA4"/>
</svg>
