<svg width="18" height="19" viewBox="0 0 18 19" fill="none" xmlns="http://www.w3.org/2000/svg">
<path d="M15.0774 8.47518L14.207 7.60494C14.0004 7.39836 13.8312 6.99013 13.8312 6.69737V5.46662C13.8312 4.88116 13.3529 4.40289 12.7676 4.40258H11.5363C11.2439 4.40258 10.8352 4.23298 10.6286 4.02656L9.75836 3.15632C9.34486 2.74282 8.66783 2.74282 8.25433 3.15632L7.38408 4.02718C7.17732 4.23376 6.76815 4.40289 6.47635 4.40289H5.24561C4.66093 4.40289 4.18203 4.88116 4.18203 5.46662V6.6974C4.18203 6.98901 4.01278 7.39852 3.80617 7.60497L2.93577 8.47522C2.52196 8.88871 2.52196 9.56575 2.93577 9.9799L3.80617 10.8501C4.0129 11.0567 4.18203 11.4661 4.18203 11.7577V12.9885C4.18203 13.5733 4.66093 14.0522 5.24561 14.0522H6.47639C6.7688 14.0522 7.1775 14.2215 7.38411 14.4279L8.25436 15.2985C8.66786 15.7117 9.34489 15.7117 9.75839 15.2985L10.6286 14.4279C10.8354 14.2214 11.2439 14.0522 11.5364 14.0522H12.7676C13.3529 14.0522 13.8312 13.5733 13.8312 12.9885V11.7577C13.8312 11.4648 14.0006 11.0566 14.207 10.8501L15.0774 9.9799C15.4906 9.56575 15.4906 8.88868 15.0774 8.47518ZM8.16213 11.6203L5.81562 9.27348L6.56765 8.52161L8.16232 10.1163L11.4449 6.83443L12.1968 7.58631L8.16213 11.6203Z" fill="#2183F6"/>
</svg>
