<svg width="103" height="17" viewBox="0 0 103 17" fill="none" xmlns="http://www.w3.org/2000/svg">
<g filter="url(#filter0_i_2560_10437)">
<path d="M3.104 12.712H3.04C2.352 12.408 1.792 11.96 1.36 11.384C0.928 10.808 0.656 10.12 0.544 9.336H2.224C2.304 9.864 2.48 10.312 2.768 10.68C3.056 11.048 3.424 11.32 3.872 11.512C4.32 11.704 4.816 11.8 5.376 11.8C6.08 11.8 6.688 11.704 7.184 11.528C7.68 11.352 8.064 11.096 8.32 10.776C8.576 10.456 8.704 10.072 8.704 9.64C8.704 9.208 8.608 8.872 8.4 8.616C8.192 8.36 7.888 8.152 7.488 8.008C7.088 7.864 6.512 7.704 5.76 7.544L4.24 7.208C3.232 6.984 2.432 6.616 1.84 6.088C1.248 5.56 0.96 4.872 0.96 4.008C0.96 3.384 1.152 2.808 1.536 2.296C1.92 1.784 2.448 1.384 3.12 1.096C3.792 0.808 4.528 0.664 5.344 0.664C6.192 0.664 6.944 0.808 7.6 1.08C8.256 1.352 8.8 1.736 9.216 2.248C9.632 2.76 9.904 3.336 10.016 3.992H8.336C8.16 3.32 7.808 2.824 7.296 2.504C6.784 2.184 6.144 2.024 5.376 2.024C4.864 2.024 4.4 2.104 3.984 2.264C3.568 2.424 3.232 2.648 2.992 2.936C2.752 3.224 2.624 3.544 2.624 3.912C2.624 4.296 2.72 4.6 2.896 4.824C3.072 5.048 3.344 5.24 3.712 5.4C4.08 5.56 4.608 5.704 5.28 5.848L6.8 6.184C7.648 6.36 8.32 6.584 8.832 6.856C9.344 7.128 9.728 7.48 9.984 7.896C10.24 8.312 10.368 8.84 10.368 9.464C10.368 10.184 10.16 10.824 9.744 11.384C9.328 11.944 8.752 12.376 8 12.696C7.248 13.016 6.384 13.176 5.408 13.176C4.56 13.176 3.792 13.016 3.104 12.712ZM18.376 4.824L18.424 4.792C18.984 5.176 19.416 5.704 19.736 6.376C20.056 7.048 20.216 7.816 20.216 8.68C20.216 9.544 20.056 10.312 19.736 10.984C19.416 11.656 18.984 12.184 18.424 12.568C17.864 12.952 17.24 13.144 16.552 13.144C16.12 13.144 15.704 13.064 15.304 12.888C14.904 12.712 14.552 12.472 14.232 12.168C13.912 11.864 13.672 11.512 13.496 11.112V16.12H11.928V4.408H13.496V6.488C13.64 6.088 13.848 5.72 14.12 5.384C14.392 5.048 14.728 4.776 15.128 4.568C15.528 4.36 15.992 4.248 16.504 4.248C17.192 4.248 17.816 4.44 18.376 4.824ZM17.432 11.592L17.416 11.656C17.8 11.384 18.088 11 18.296 10.504C18.504 10.008 18.6 9.416 18.6 8.744C18.6 8.072 18.504 7.48 18.296 6.984C18.088 6.488 17.8 6.104 17.416 5.832C17.032 5.56 16.568 5.416 16.04 5.416C15.512 5.416 15.048 5.544 14.664 5.816C14.28 6.088 13.992 6.472 13.784 6.968C13.576 7.464 13.48 8.04 13.48 8.712C13.48 9.384 13.576 9.96 13.784 10.456C13.992 10.952 14.296 11.336 14.68 11.608C15.064 11.88 15.528 12.008 16.056 12.008C16.584 12.008 17.048 11.864 17.432 11.592ZM29.3471 9.176L22.8511 9.208C22.9151 10.12 23.1711 10.824 23.6031 11.32C24.0351 11.816 24.6111 12.056 25.3311 12.056C25.9231 12.056 26.4031 11.928 26.7551 11.672C27.1071 11.416 27.3791 11.032 27.5551 10.536H29.1551C28.9151 11.432 28.4671 12.104 27.8111 12.552C27.1551 13 26.3391 13.224 25.3471 13.224C24.4991 13.224 23.7791 13.032 23.1711 12.648C22.5631 12.264 22.0991 11.736 21.7791 11.064C21.4591 10.392 21.2991 9.624 21.2991 8.76C21.2991 7.88 21.4591 7.112 21.7791 6.44C22.0991 5.768 22.5631 5.24 23.1711 4.856C23.7791 4.472 24.4991 4.28 25.3311 4.28C26.1311 4.28 26.8351 4.456 27.4431 4.808C28.0511 5.16 28.5311 5.672 28.8671 6.328C29.2031 6.984 29.3791 7.736 29.3791 8.6C29.3791 8.712 29.3631 8.904 29.3471 9.176ZM23.6511 6.104L23.6351 6.088C23.2031 6.536 22.9471 7.176 22.8511 8.024H27.7471C27.7151 7.512 27.6031 7.064 27.3951 6.68C27.1871 6.296 26.8991 5.992 26.5471 5.768C26.1951 5.544 25.7951 5.432 25.3311 5.432C24.6431 5.432 24.0831 5.656 23.6511 6.104ZM32.4308 12.616L32.3508 12.648C31.7108 12.28 31.2308 11.752 30.8948 11.08C30.5588 10.408 30.3828 9.624 30.3828 8.744C30.3828 7.864 30.5588 7.08 30.8948 6.408C31.2308 5.736 31.7268 5.208 32.3668 4.84C33.0068 4.472 33.7428 4.28 34.5748 4.28C35.2628 4.28 35.8868 4.408 36.4308 4.664C36.9748 4.92 37.4228 5.288 37.7588 5.752C38.0948 6.216 38.3348 6.744 38.4628 7.352H36.8628C36.7348 6.792 36.4788 6.328 36.0948 5.96C35.7108 5.592 35.2148 5.416 34.5908 5.416C34.0628 5.416 33.5988 5.544 33.2148 5.816C32.8308 6.088 32.5428 6.472 32.3348 6.968C32.1268 7.464 32.0308 8.04 32.0308 8.712C32.0308 9.384 32.1268 9.96 32.3348 10.456C32.5428 10.952 32.8468 11.336 33.2308 11.608C33.6148 11.88 34.0788 12.008 34.6068 12.008C35.8228 12.008 36.6068 11.384 36.9748 10.12H38.5748C38.4308 10.76 38.1748 11.304 37.8068 11.768C37.4388 12.232 36.9748 12.584 36.4308 12.824C35.8868 13.064 35.2948 13.176 34.6388 13.176C33.8068 13.176 33.0708 12.984 32.4308 12.616ZM41.6298 13H40.0618V4.424H41.6298V13ZM41.6938 2.952H39.9978V0.839999H41.6938V2.952ZM51.3883 13L49.8043 13.016V5.624H46.1403V13.016H44.5723V5.624H42.7963V4.44H44.5723V3.24C44.5723 2.456 44.8123 1.864 45.3083 1.464C45.8043 1.064 46.4443 0.855999 47.2283 0.855999H48.3483V2.04H47.3883C46.9723 2.04 46.6683 2.12 46.4603 2.296C46.2523 2.472 46.1563 2.776 46.1563 3.224V4.424H51.3883V13ZM49.7403 2.968V0.855999H51.4363V2.968H49.7403ZM54.9864 12.616L54.9064 12.648C54.2664 12.28 53.7864 11.752 53.4504 11.08C53.1144 10.408 52.9384 9.624 52.9384 8.744C52.9384 7.864 53.1144 7.08 53.4504 6.408C53.7864 5.736 54.2824 5.208 54.9224 4.84C55.5624 4.472 56.2984 4.28 57.1304 4.28C57.8184 4.28 58.4424 4.408 58.9864 4.664C59.5304 4.92 59.9784 5.288 60.3144 5.752C60.6504 6.216 60.8904 6.744 61.0184 7.352H59.4184C59.2904 6.792 59.0344 6.328 58.6504 5.96C58.2664 5.592 57.7704 5.416 57.1464 5.416C56.6184 5.416 56.1544 5.544 55.7704 5.816C55.3864 6.088 55.0984 6.472 54.8904 6.968C54.6824 7.464 54.5864 8.04 54.5864 8.712C54.5864 9.384 54.6824 9.96 54.8904 10.456C55.0984 10.952 55.4024 11.336 55.7864 11.608C56.1704 11.88 56.6344 12.008 57.1624 12.008C58.3784 12.008 59.1624 11.384 59.5304 10.12H61.1304C60.9864 10.76 60.7304 11.304 60.3624 11.768C59.9944 12.232 59.5304 12.584 58.9864 12.824C58.4424 13.064 57.8504 13.176 57.1944 13.176C56.3624 13.176 55.6264 12.984 54.9864 12.616ZM68.0254 4.712L67.9934 4.808C68.5214 5.112 68.9054 5.512 69.1454 5.992C69.3854 6.472 69.5134 7 69.5134 7.576V7.608V13.096H67.9454V11.336C67.7374 11.768 67.5134 12.12 67.2734 12.392C67.0334 12.664 66.7294 12.872 66.3614 13.016C65.9934 13.16 65.5454 13.24 65.0174 13.24C64.4894 13.24 64.0094 13.112 63.5774 12.872C63.1454 12.632 62.7934 12.296 62.5374 11.88C62.2814 11.464 62.1534 11 62.1534 10.472C62.1534 9.848 62.3294 9.352 62.6814 9C63.0334 8.648 63.4654 8.392 63.9614 8.248C64.4574 8.104 65.0334 7.992 65.6894 7.928L67.9934 7.688V7.544V7.512C67.9934 7.128 67.9294 6.776 67.7854 6.456C67.6414 6.136 67.4174 5.88 67.1134 5.704C66.8094 5.528 66.4414 5.432 66.0094 5.432C65.6254 5.432 65.2894 5.496 65.0014 5.64C64.7134 5.784 64.4894 5.976 64.3294 6.216C64.1694 6.456 64.0734 6.712 64.0254 6.984H62.4254C62.4894 6.456 62.6814 5.976 63.0014 5.56C63.3214 5.144 63.7374 4.824 64.2494 4.6C64.7614 4.376 65.3534 4.264 66.0094 4.264C66.8254 4.264 67.4974 4.408 68.0254 4.712ZM66.8574 11.88V11.928C67.2094 11.688 67.4814 11.352 67.6574 10.936C67.8334 10.52 67.9294 10.04 67.9294 9.512V8.872L66.2174 9.048C65.6894 9.096 65.2574 9.16 64.9214 9.24C64.5854 9.32 64.2974 9.464 64.0574 9.672C63.8174 9.88 63.7054 10.184 63.7054 10.568C63.7054 10.92 63.7854 11.224 63.9454 11.48C64.1054 11.736 64.3294 11.928 64.6174 12.056C64.9054 12.184 65.2254 12.248 65.5614 12.248C66.0734 12.248 66.5054 12.12 66.8574 11.88ZM73.1935 13H71.6255V0.839999H73.1935V13ZM76.936 13H75.368V0.839999H76.936V13ZM82.4705 11.912L84.9825 4.424H86.6145L82.6785 16.136H81.0465L82.4225 12.056H80.9025L77.9265 4.424H79.5425L82.4705 11.912ZM92.7104 13H91.1424V4.424H92.7104V13ZM92.7744 2.952H91.0784V0.839999H92.7744V2.952ZM100.757 4.696H100.741C101.189 5 101.525 5.4 101.749 5.912C101.973 6.424 102.085 7 102.085 7.656V7.688V13H100.517V7.928V7.896C100.517 7.048 100.341 6.424 99.9889 6.008C99.6369 5.592 99.1409 5.384 98.4849 5.384C97.8289 5.384 97.3329 5.592 96.9809 6.008C96.6289 6.424 96.4529 7.064 96.4529 7.912V12.984H94.8849V4.408H96.4529V6.152C96.6609 5.592 96.9969 5.128 97.4449 4.776C97.8929 4.424 98.4529 4.248 99.1409 4.248C99.7649 4.248 100.309 4.392 100.757 4.696Z" fill="#2F3D58"/>
</g>
<defs>
<filter id="filter0_i_2560_10437" x="0.544006" y="-0.335938" width="101.541" height="16.4719" filterUnits="userSpaceOnUse" color-interpolation-filters="sRGB">
<feFlood flood-opacity="0" result="BackgroundImageFix"/>
<feBlend mode="normal" in="SourceGraphic" in2="BackgroundImageFix" result="shape"/>
<feColorMatrix in="SourceAlpha" type="matrix" values="0 0 0 0 0 0 0 0 0 0 0 0 0 0 0 0 0 0 127 0" result="hardAlpha"/>
<feOffset dy="-1"/>
<feGaussianBlur stdDeviation="1"/>
<feComposite in2="hardAlpha" operator="arithmetic" k2="-1" k3="1"/>
<feColorMatrix type="matrix" values="0 0 0 0 1 0 0 0 0 1 0 0 0 0 1 0 0 0 0.5 0"/>
<feBlend mode="normal" in2="shape" result="effect1_innerShadow_2560_10437"/>
</filter>
</defs>
</svg>
