<svg width="200" height="201" viewBox="0 0 200 201" fill="none" xmlns="http://www.w3.org/2000/svg">
<g clip-path="url(#clip0_1553_2961)">
<path d="M175.001 57.0366V111.411C175.001 124.868 168.833 140.489 157.637 155.396C144.589 172.763 125.37 188.093 102.056 199.729L99.8399 200.833L97.6239 199.729C74.3099 188.093 55.0904 172.763 42.0427 155.396C30.8471 140.489 24.6787 124.868 24.6787 111.411V57.0366L61.2456 31.5H138.434L175.001 57.0366Z" fill="white" fill-opacity="0.1"/>
<path d="M138.284 31.9762L174.525 57.2849V111.411C174.525 124.732 168.413 140.255 157.256 155.11C144.261 172.407 125.104 187.694 101.843 199.303L99.8399 200.301L97.8365 199.303C74.5756 187.694 55.4188 172.407 42.4234 155.11C31.2663 140.255 25.1549 124.732 25.1549 111.411V57.2849L61.3954 31.9762H138.284Z" stroke="white" stroke-opacity="0.6" stroke-width="0.952381"/>
<g filter="url(#filter0_i_1553_2961)">
<path d="M133.751 46.3833H65.9288L39.562 64.7957V111.411C39.562 121.088 44.4636 133.385 53.0067 145.146C63.4085 159.467 78.7715 172.495 97.4386 182.821L99.8398 184.151L102.241 182.821C120.908 172.495 136.271 159.467 146.673 145.146C155.216 133.385 160.118 121.088 160.118 111.411V64.7957L133.751 46.3833ZM150.195 111.411C150.195 124.61 136.731 151.563 99.8398 172.783C62.9488 151.563 49.4843 124.61 49.4843 111.411V69.9685L69.051 56.3056H130.629L150.195 69.9685V111.411Z" fill="white" fill-opacity="0.32"/>
</g>
<g filter="url(#filter1_i_1553_2961)">
<path d="M131.512 89.1286L99.8403 121.68L99.7742 121.75L91.7206 130.025L68.1685 107.997L74.9454 100.751L91.3899 116.134L99.7742 107.521L99.8403 107.452L124.401 82.2095L131.512 89.1286Z" fill="white" fill-opacity="0.32"/>
</g>
</g>
<defs>
<filter id="filter0_i_1553_2961" x="39.562" y="46.3833" width="120.556" height="141.767" filterUnits="userSpaceOnUse" color-interpolation-filters="sRGB">
<feFlood flood-opacity="0" result="BackgroundImageFix"/>
<feBlend mode="normal" in="SourceGraphic" in2="BackgroundImageFix" result="shape"/>
<feColorMatrix in="SourceAlpha" type="matrix" values="0 0 0 0 0 0 0 0 0 0 0 0 0 0 0 0 0 0 127 0" result="hardAlpha"/>
<feOffset dy="4"/>
<feGaussianBlur stdDeviation="2"/>
<feComposite in2="hardAlpha" operator="arithmetic" k2="-1" k3="1"/>
<feColorMatrix type="matrix" values="0 0 0 0 1 0 0 0 0 1 0 0 0 0 1 0 0 0 0.25 0"/>
<feBlend mode="normal" in2="shape" result="effect1_innerShadow_1553_2961"/>
</filter>
<filter id="filter1_i_1553_2961" x="68.1685" y="82.2095" width="63.3438" height="51.8154" filterUnits="userSpaceOnUse" color-interpolation-filters="sRGB">
<feFlood flood-opacity="0" result="BackgroundImageFix"/>
<feBlend mode="normal" in="SourceGraphic" in2="BackgroundImageFix" result="shape"/>
<feColorMatrix in="SourceAlpha" type="matrix" values="0 0 0 0 0 0 0 0 0 0 0 0 0 0 0 0 0 0 127 0" result="hardAlpha"/>
<feOffset dy="4"/>
<feGaussianBlur stdDeviation="2"/>
<feComposite in2="hardAlpha" operator="arithmetic" k2="-1" k3="1"/>
<feColorMatrix type="matrix" values="0 0 0 0 1 0 0 0 0 1 0 0 0 0 1 0 0 0 0.25 0"/>
<feBlend mode="normal" in2="shape" result="effect1_innerShadow_1553_2961"/>
</filter>
<clipPath id="clip0_1553_2961">
<rect width="200" height="200" fill="white" transform="translate(0 0.5)"/>
</clipPath>
</defs>
</svg>
