<svg width="126" height="14" viewBox="0 0 126 14" fill="none" xmlns="http://www.w3.org/2000/svg">
  <g filter="url(#filter0_i_1556_575)">
  <path d="M3.052 12.392V12.408C2.204 11.88 1.532 11.144 1.036 10.2C0.54 9.256 0.3 8.168 0.3 6.936C0.3 5.704 0.54 4.616 1.036 3.672C1.532 2.728 2.204 1.992 3.068 1.464C3.932 0.936 4.908 0.679999 5.996 0.679999C6.908 0.679999 7.74 0.855999 8.476 1.208C9.212 1.56 9.836 2.04 10.332 2.664C10.828 3.288 11.18 4.008 11.388 4.824H9.708C9.404 3.976 8.94 3.304 8.316 2.808C7.692 2.312 6.924 2.056 5.996 2.056C5.212 2.056 4.508 2.264 3.9 2.68C3.292 3.096 2.828 3.672 2.492 4.408C2.156 5.144 1.996 5.992 1.996 6.936C1.996 7.88 2.172 8.728 2.508 9.464C2.844 10.2 3.308 10.776 3.9 11.192C4.492 11.608 5.164 11.816 5.916 11.816C6.892 11.816 7.708 11.576 8.348 11.096C8.988 10.616 9.468 9.928 9.772 9.032H11.452C11.052 10.392 10.38 11.416 9.436 12.12C8.492 12.824 7.324 13.176 5.932 13.176C4.86 13.176 3.9 12.92 3.052 12.392ZM14.3364 12.616H14.3204C13.6804 12.248 13.2004 11.72 12.8644 11.048C12.5284 10.376 12.3524 9.592 12.3524 8.712C12.3524 7.832 12.5284 7.048 12.8644 6.376C13.2004 5.704 13.6964 5.176 14.3364 4.808C14.9764 4.44 15.7124 4.248 16.5444 4.248C17.3764 4.248 18.1124 4.44 18.7364 4.808C19.3604 5.176 19.8404 5.704 20.1764 6.376C20.5124 7.048 20.6884 7.832 20.6884 8.712C20.6884 9.592 20.5124 10.376 20.1764 11.048C19.8404 11.72 19.3604 12.248 18.7364 12.616C18.1124 12.984 17.3764 13.176 16.5444 13.176C15.7124 13.176 14.9764 12.984 14.3364 12.616ZM17.8884 11.624L17.8724 11.688C18.2564 11.416 18.5444 11.032 18.7524 10.536C18.9604 10.04 19.0564 9.448 19.0564 8.776C19.0564 8.104 18.9604 7.512 18.7524 7.016C18.5444 6.52 18.2564 6.136 17.8724 5.864C17.4884 5.592 17.0244 5.448 16.4964 5.448C15.9684 5.448 15.5044 5.576 15.1204 5.848C14.7364 6.12 14.4484 6.504 14.2404 7C14.0324 7.496 13.9364 8.072 13.9364 8.744C13.9364 9.416 14.0324 9.992 14.2404 10.488C14.4484 10.984 14.7524 11.368 15.1364 11.64C15.5204 11.912 15.9844 12.04 16.5124 12.04C17.0404 12.04 17.5044 11.896 17.8884 11.624ZM33.4304 4.68L33.3824 4.664C33.8144 4.952 34.1344 5.352 34.3584 5.864C34.5824 6.376 34.6944 6.968 34.6944 7.64V7.672V12.984H33.1264V7.912V7.88C33.1264 7.032 32.9664 6.408 32.6464 6.008C32.3264 5.608 31.8464 5.4 31.2224 5.4C30.5824 5.4 30.1024 5.608 29.7824 6.024C29.4624 6.44 29.3024 7.08 29.3024 7.944V13.016H27.7344V7.944V7.912C27.7344 7.064 27.5744 6.44 27.2544 6.04C26.9344 5.64 26.4544 5.432 25.8304 5.432C25.1904 5.432 24.7104 5.64 24.3904 6.056C24.0704 6.472 23.9104 7.112 23.9104 7.976V13.048H22.3424V4.472H23.9104V6.216C24.1184 5.64 24.4384 5.176 24.8544 4.824C25.2704 4.472 25.8144 4.296 26.4704 4.296C26.9344 4.296 27.3504 4.392 27.7184 4.584C28.0864 4.776 28.3904 5.032 28.6304 5.352C28.8704 5.672 29.0464 6.024 29.1584 6.408C29.3664 5.8 29.7024 5.288 30.1504 4.872C30.5984 4.456 31.1744 4.248 31.8784 4.248C32.4864 4.248 32.9984 4.392 33.4304 4.68ZM47.8916 4.68L47.8436 4.664C48.2756 4.952 48.5956 5.352 48.8196 5.864C49.0436 6.376 49.1556 6.968 49.1556 7.64V7.672V12.984H47.5876V7.912V7.88C47.5876 7.032 47.4276 6.408 47.1076 6.008C46.7876 5.608 46.3076 5.4 45.6836 5.4C45.0436 5.4 44.5636 5.608 44.2436 6.024C43.9236 6.44 43.7636 7.08 43.7636 7.944V13.016H42.1956V7.944V7.912C42.1956 7.064 42.0356 6.44 41.7156 6.04C41.3956 5.64 40.9156 5.432 40.2916 5.432C39.6516 5.432 39.1716 5.64 38.8516 6.056C38.5316 6.472 38.3716 7.112 38.3716 7.976V13.048H36.8036V4.472H38.3716V6.216C38.5796 5.64 38.8996 5.176 39.3156 4.824C39.7316 4.472 40.2756 4.296 40.9316 4.296C41.3956 4.296 41.8116 4.392 42.1796 4.584C42.5476 4.776 42.8516 5.032 43.0916 5.352C43.3316 5.672 43.5076 6.024 43.6196 6.408C43.8276 5.8 44.1636 5.288 44.6116 4.872C45.0596 4.456 45.6356 4.248 46.3396 4.248C46.9476 4.248 47.4596 4.392 47.8916 4.68ZM52.6889 12.616H52.6729C52.0329 12.248 51.5529 11.72 51.2169 11.048C50.8809 10.376 50.7049 9.592 50.7049 8.712C50.7049 7.832 50.8809 7.048 51.2169 6.376C51.5529 5.704 52.0489 5.176 52.6889 4.808C53.3289 4.44 54.0649 4.248 54.8969 4.248C55.7289 4.248 56.4649 4.44 57.0889 4.808C57.7129 5.176 58.1929 5.704 58.5289 6.376C58.8649 7.048 59.0409 7.832 59.0409 8.712C59.0409 9.592 58.8649 10.376 58.5289 11.048C58.1929 11.72 57.7129 12.248 57.0889 12.616C56.4649 12.984 55.7289 13.176 54.8969 13.176C54.0649 13.176 53.3289 12.984 52.6889 12.616ZM56.2409 11.624L56.2249 11.688C56.6089 11.416 56.8969 11.032 57.1049 10.536C57.3129 10.04 57.4089 9.448 57.4089 8.776C57.4089 8.104 57.3129 7.512 57.1049 7.016C56.8969 6.52 56.6089 6.136 56.2249 5.864C55.8409 5.592 55.3769 5.448 54.8489 5.448C54.3209 5.448 53.8569 5.576 53.4729 5.848C53.0889 6.12 52.8009 6.504 52.5929 7C52.3849 7.496 52.2889 8.072 52.2889 8.744C52.2889 9.416 52.3849 9.992 52.5929 10.488C52.8009 10.984 53.1049 11.368 53.4889 11.64C53.8729 11.912 54.3369 12.04 54.8649 12.04C55.3929 12.04 55.8569 11.896 56.2409 11.624ZM66.5669 4.696H66.5509C66.9989 5 67.3349 5.4 67.5589 5.912C67.7829 6.424 67.8949 7 67.8949 7.656V7.688V13H66.3269V7.928V7.896C66.3269 7.048 66.1509 6.424 65.7989 6.008C65.4469 5.592 64.9509 5.384 64.2949 5.384C63.6389 5.384 63.1429 5.592 62.7909 6.008C62.4389 6.424 62.2629 7.064 62.2629 7.912V12.984H60.6949V4.408H62.2629V6.152C62.4709 5.592 62.8069 5.128 63.2549 4.776C63.7029 4.424 64.2629 4.248 64.9509 4.248C65.5749 4.248 66.1189 4.392 66.5669 4.696ZM76.983 2.024L76.967 2.04C76.551 2.04 76.247 2.12 76.039 2.296C75.831 2.472 75.735 2.776 75.735 3.224V4.424H77.943V5.608H75.735V13H74.167V5.608H72.391V4.424H74.167V3.224C74.167 2.44 74.407 1.848 74.903 1.448C75.399 1.048 76.039 0.839999 76.823 0.839999H77.943V2.024H76.983ZM86.349 9.176L79.853 9.208C79.917 10.12 80.173 10.824 80.605 11.32C81.037 11.816 81.613 12.056 82.333 12.056C82.925 12.056 83.405 11.928 83.757 11.672C84.109 11.416 84.381 11.032 84.557 10.536H86.157C85.917 11.432 85.469 12.104 84.813 12.552C84.157 13 83.341 13.224 82.349 13.224C81.501 13.224 80.781 13.032 80.173 12.648C79.565 12.264 79.101 11.736 78.781 11.064C78.461 10.392 78.301 9.624 78.301 8.76C78.301 7.88 78.461 7.112 78.781 6.44C79.101 5.768 79.565 5.24 80.173 4.856C80.781 4.472 81.501 4.28 82.333 4.28C83.133 4.28 83.837 4.456 84.445 4.808C85.053 5.16 85.533 5.672 85.869 6.328C86.205 6.984 86.381 7.736 86.381 8.6C86.381 8.712 86.365 8.904 86.349 9.176ZM80.653 6.104L80.637 6.088C80.205 6.536 79.949 7.176 79.853 8.024H84.749C84.717 7.512 84.605 7.064 84.397 6.68C84.189 6.296 83.901 5.992 83.549 5.768C83.197 5.544 82.797 5.432 82.333 5.432C81.645 5.432 81.085 5.656 80.653 6.104ZM93.4166 4.712L93.3846 4.808C93.9126 5.112 94.2966 5.512 94.5366 5.992C94.7766 6.472 94.9046 7 94.9046 7.576V7.608V13.096H93.3366V11.336C93.1286 11.768 92.9046 12.12 92.6646 12.392C92.4246 12.664 92.1206 12.872 91.7526 13.016C91.3846 13.16 90.9366 13.24 90.4086 13.24C89.8806 13.24 89.4006 13.112 88.9686 12.872C88.5366 12.632 88.1846 12.296 87.9286 11.88C87.6726 11.464 87.5446 11 87.5446 10.472C87.5446 9.848 87.7206 9.352 88.0726 9C88.4246 8.648 88.8566 8.392 89.3526 8.248C89.8486 8.104 90.4246 7.992 91.0806 7.928L93.3846 7.688V7.544V7.512C93.3846 7.128 93.3206 6.776 93.1766 6.456C93.0326 6.136 92.8086 5.88 92.5046 5.704C92.2006 5.528 91.8326 5.432 91.4006 5.432C91.0166 5.432 90.6806 5.496 90.3926 5.64C90.1046 5.784 89.8806 5.976 89.7206 6.216C89.5606 6.456 89.4646 6.712 89.4166 6.984H87.8166C87.8806 6.456 88.0726 5.976 88.3926 5.56C88.7126 5.144 89.1286 4.824 89.6406 4.6C90.1526 4.376 90.7446 4.264 91.4006 4.264C92.2166 4.264 92.8886 4.408 93.4166 4.712ZM92.2486 11.88V11.928C92.6006 11.688 92.8726 11.352 93.0486 10.936C93.2246 10.52 93.3206 10.04 93.3206 9.512V8.872L91.6086 9.048C91.0806 9.096 90.6486 9.16 90.3126 9.24C89.9766 9.32 89.6886 9.464 89.4486 9.672C89.2086 9.88 89.0966 10.184 89.0966 10.568C89.0966 10.92 89.1766 11.224 89.3366 11.48C89.4966 11.736 89.7206 11.928 90.0086 12.056C90.2966 12.184 90.6166 12.248 90.9526 12.248C91.4646 12.248 91.8966 12.12 92.2486 11.88ZM101.436 11.816L101.404 13H100.284C99.7718 13 99.3238 12.92 98.9238 12.744C98.5238 12.568 98.2038 12.312 97.9798 11.96C97.7558 11.608 97.6438 11.176 97.6438 10.648V10.616V5.608H95.8358V4.424H97.6438V2.392H99.2118V4.424H101.388V5.608H99.2118V10.616V10.648C99.2118 11.08 99.3238 11.384 99.5318 11.56C99.7398 11.736 100.06 11.816 100.476 11.816H101.436ZM108.263 4.424L109.815 4.408V12.984H108.247V11.272C108.039 11.816 107.719 12.264 107.271 12.616C106.823 12.968 106.263 13.144 105.607 13.144C104.983 13.144 104.455 13 104.007 12.712C103.559 12.424 103.223 12.024 102.999 11.512C102.775 11 102.663 10.408 102.663 9.752V9.72V4.408H104.231V9.48V9.512C104.231 10.36 104.407 10.984 104.759 11.4C105.111 11.816 105.607 12.024 106.247 12.024C106.887 12.024 107.383 11.816 107.735 11.4C108.087 10.984 108.263 10.344 108.263 9.496V4.424ZM113.57 6.264H113.554C113.986 4.92 114.93 4.248 116.386 4.248V5.8H115.906C115.362 5.8 114.93 5.864 114.594 5.992C114.258 6.12 114.002 6.328 113.826 6.632C113.65 6.936 113.57 7.336 113.57 7.832V13H112.002V4.424H113.57V6.264ZM124.999 9.176L118.503 9.208C118.567 10.12 118.823 10.824 119.255 11.32C119.687 11.816 120.263 12.056 120.983 12.056C121.575 12.056 122.055 11.928 122.407 11.672C122.759 11.416 123.031 11.032 123.207 10.536H124.807C124.567 11.432 124.119 12.104 123.463 12.552C122.807 13 121.991 13.224 120.999 13.224C120.151 13.224 119.431 13.032 118.823 12.648C118.215 12.264 117.751 11.736 117.431 11.064C117.111 10.392 116.951 9.624 116.951 8.76C116.951 7.88 117.111 7.112 117.431 6.44C117.751 5.768 118.215 5.24 118.823 4.856C119.431 4.472 120.151 4.28 120.983 4.28C121.783 4.28 122.487 4.456 123.095 4.808C123.703 5.16 124.183 5.672 124.519 6.328C124.855 6.984 125.031 7.736 125.031 8.6C125.031 8.712 125.015 8.904 124.999 9.176ZM119.303 6.104L119.287 6.088C118.855 6.536 118.599 7.176 118.503 8.024H123.399C123.367 7.512 123.255 7.064 123.047 6.68C122.839 6.296 122.551 5.992 122.199 5.768C121.847 5.544 121.447 5.432 120.983 5.432C120.295 5.432 119.735 5.656 119.303 6.104Z" fill="#2F3D58"/>
  </g>
  <defs>
  <filter id="filter0_i_1556_575" x="0.299805" y="-0.320068" width="124.731" height="13.5601" filterUnits="userSpaceOnUse" color-interpolation-filters="sRGB">
  <feFlood flood-opacity="0" result="BackgroundImageFix"/>
  <feBlend mode="normal" in="SourceGraphic" in2="BackgroundImageFix" result="shape"/>
  <feColorMatrix in="SourceAlpha" type="matrix" values="0 0 0 0 0 0 0 0 0 0 0 0 0 0 0 0 0 0 127 0" result="hardAlpha"/>
  <feOffset dy="-1"/>
  <feGaussianBlur stdDeviation="1"/>
  <feComposite in2="hardAlpha" operator="arithmetic" k2="-1" k3="1"/>
  <feColorMatrix type="matrix" values="0 0 0 0 1 0 0 0 0 1 0 0 0 0 1 0 0 0 0.5 0"/>
  <feBlend mode="normal" in2="shape" result="effect1_innerShadow_1556_575"/>
  </filter>
  </defs>
  </svg>
  