<svg width="1184" height="838" viewBox="0 0 1184 838" fill="none" xmlns="http://www.w3.org/2000/svg">
<ellipse cx="591.948" cy="418.815" rx="591.948" ry="418.815" fill="url(#paint0_radial_1555_569)"/>
<path d="M1183.4 418.815C1183.4 534.263 1117.26 638.829 1010.23 714.555C903.203 790.279 755.319 837.131 591.948 837.131C428.577 837.131 280.694 790.279 173.666 714.555C66.6376 638.829 0.5 534.263 0.5 418.815C0.5 303.368 66.6376 198.801 173.666 123.076C280.694 47.3522 428.577 0.5 591.948 0.5C755.319 0.5 903.203 47.3522 1010.23 123.076C1117.26 198.801 1183.4 303.368 1183.4 418.815Z" stroke="url(#paint1_radial_1555_569)" stroke-opacity="0.5"/>
<ellipse cx="591.948" cy="396.138" rx="427.31" ry="302.331" fill="url(#paint2_radial_1555_569)"/>
<path d="M1018.76 396.138C1018.76 479.419 971.049 554.865 893.813 609.51C816.579 664.155 709.855 697.969 591.948 697.969C474.041 697.969 367.317 664.155 290.083 609.51C212.848 554.865 165.138 479.419 165.138 396.138C165.138 312.857 212.848 237.412 290.083 182.766C367.317 128.122 474.041 94.3074 591.948 94.3074C709.855 94.3074 816.579 128.122 893.813 182.766C971.049 237.412 1018.76 312.857 1018.76 396.138Z" stroke="url(#paint3_radial_1555_569)" stroke-opacity="0.5"/>
<ellipse cx="591.948" cy="396.138" rx="272.067" ry="192.493" fill="url(#paint4_radial_1555_569)"/>
<path d="M863.515 396.138C863.515 449.088 833.181 497.074 784.039 531.843C734.899 566.611 666.986 588.131 591.948 588.131C516.91 588.131 448.997 566.611 399.857 531.843C350.715 497.074 320.381 449.088 320.381 396.138C320.381 343.188 350.715 295.202 399.857 260.433C448.997 225.666 516.91 204.146 591.948 204.146C666.986 204.146 734.899 225.666 784.039 260.433C833.181 295.202 863.515 343.188 863.515 396.138Z" stroke="url(#paint5_radial_1555_569)" stroke-opacity="0.75"/>
<defs>
<radialGradient id="paint0_radial_1555_569" cx="0" cy="0" r="1" gradientUnits="userSpaceOnUse" gradientTransform="translate(591.948 418.815) rotate(90) scale(418.815 591.948)">
<stop stop-color="#DB47F3" stop-opacity="0.05"/>
<stop offset="1" stop-color="#386D9F" stop-opacity="0.15"/>
</radialGradient>
<radialGradient id="paint1_radial_1555_569" cx="0" cy="0" r="1" gradientUnits="userSpaceOnUse" gradientTransform="translate(591.948 418.815) rotate(90) scale(418.815 591.948)">
<stop stop-color="white"/>
<stop offset="1" stop-color="#999999"/>
</radialGradient>
<radialGradient id="paint2_radial_1555_569" cx="0" cy="0" r="1" gradientUnits="userSpaceOnUse" gradientTransform="translate(591.948 396.138) rotate(90) scale(302.331 427.31)">
<stop offset="0.0001" stop-color="#AC42B5" stop-opacity="0.05"/>
<stop offset="1" stop-color="#353CD0" stop-opacity="0.25"/>
</radialGradient>
<radialGradient id="paint3_radial_1555_569" cx="0" cy="0" r="1" gradientUnits="userSpaceOnUse" gradientTransform="translate(591.948 396.138) rotate(90) scale(302.331 427.31)">
<stop stop-color="white"/>
<stop offset="1" stop-color="#6691E6"/>
</radialGradient>
<radialGradient id="paint4_radial_1555_569" cx="0" cy="0" r="1" gradientUnits="userSpaceOnUse" gradientTransform="translate(591.948 396.138) rotate(90) scale(192.493 272.067)">
<stop offset="0.0001" stop-color="#7C42B5" stop-opacity="0.25"/>
<stop offset="1" stop-color="#2C166C" stop-opacity="0.35"/>
</radialGradient>
<radialGradient id="paint5_radial_1555_569" cx="0" cy="0" r="1" gradientUnits="userSpaceOnUse" gradientTransform="translate(591.948 396.138) rotate(90) scale(192.493 272.067)">
<stop stop-color="white"/>
<stop offset="1" stop-color="#7324C1"/>
</radialGradient>
</defs>
</svg>
