<svg width="200" height="202" viewBox="0 0 200 202" fill="none" xmlns="http://www.w3.org/2000/svg">
<path fill-rule="evenodd" clip-rule="evenodd" d="M131.564 56.8581C128.079 58.8374 123.806 60.5375 118.75 61.964C113.853 63.3448 108.167 64.4849 101.695 65.3885C99.1894 65.7351 96.8776 63.9852 96.5314 61.48C96.4202 60.6748 96.5256 59.89 96.8024 59.1836C98.6394 53.4435 100.623 48.5302 102.751 44.4437C105.027 40.0733 107.524 36.513 110.241 33.7642C116.899 27.0272 124.603 26.051 130.653 28.1893C133.602 29.2315 136.157 31.0286 138.025 33.2831C139.977 35.6381 141.199 38.5119 141.387 41.5961C141.712 46.9373 138.98 52.6466 131.564 56.8581ZM116.275 53.1434C120.633 51.9145 124.224 50.5004 127.045 48.898C130.914 46.7007 132.371 44.2366 132.243 42.134C132.179 41.0764 131.712 40.0338 130.961 39.1278C130.127 38.1213 128.964 37.3112 127.605 36.8309C124.549 35.751 120.505 36.3989 116.766 40.1824C114.717 42.2547 112.758 45.0858 110.889 48.6747C109.875 50.622 108.903 52.757 107.972 55.0788C110.979 54.5015 113.747 53.8565 116.275 53.1434Z" fill="white" fill-opacity="0.32"/>
<path fill-rule="evenodd" clip-rule="evenodd" d="M100.059 65.3205C98.2514 64.9125 96.7996 63.4238 96.5306 61.4805C96.419 60.6753 96.5248 59.8905 96.8016 59.1841C98.6386 53.444 100.622 48.5307 102.75 44.4442C105.026 40.0738 107.523 36.5135 110.24 33.7647C116.898 27.0277 124.602 26.0515 130.653 28.1898C132.815 28.9543 134.766 30.1247 136.389 31.5836C135.5 31.0752 134.555 30.6406 133.566 30.2912C127.516 28.1529 119.812 29.129 113.154 35.866C110.437 38.6149 107.94 42.1751 105.664 46.5455C103.535 50.6321 101.553 55.5454 99.7157 61.2854C99.4384 61.9918 99.333 62.7767 99.4446 63.5819C99.5318 64.2173 99.7468 64.8042 100.059 65.3205ZM130.929 39.0901L130.961 39.1279C131.712 40.0339 132.179 41.0765 132.243 42.134C132.371 44.2367 130.914 46.7008 127.046 48.898C124.224 50.5005 120.633 51.9146 116.275 53.1435C113.746 53.857 110.978 54.502 107.972 55.0793C107.542 56.0368 107.12 57.0308 106.707 58.0622C109.713 57.4849 116.659 55.9579 119.188 55.2449C123.545 54.0159 127.137 52.6023 129.959 50.9994C133.827 48.8021 135.284 46.3384 135.156 44.2358C135.092 43.1783 134.625 42.1357 133.874 41.2297C133.125 40.3257 132.112 39.5803 130.929 39.0901Z" fill="white" fill-opacity="0.24"/>
<path fill-rule="evenodd" clip-rule="evenodd" d="M81.9602 53.1388C84.4475 53.8415 87.1657 54.4782 90.1145 55.0493C89.1579 52.8583 88.153 50.8582 87.1333 49.0224C85.1016 45.3646 82.9675 42.3074 81.0359 39.6806C76.4293 33.4167 71.9788 31.3187 68.6136 31.7147C67.0895 31.894 65.7834 32.6248 64.8471 33.6961C63.8626 34.8225 63.2637 36.3283 63.2097 37.991C62.9242 46.7517 75.1912 51.2271 81.9602 53.1388ZM79.4861 61.9594C68.0553 58.7311 53.6085 51.7443 54.0663 37.7037C54.1908 33.8766 55.6161 30.3575 57.9627 27.6721C60.3575 24.932 63.6903 23.0639 67.5739 22.6069C73.866 21.8665 81.5264 24.8892 88.4224 34.2659C90.5068 37.1003 92.8285 40.4339 95.1291 44.576C97.3828 48.6331 99.5763 53.419 101.429 59.1802C101.707 59.8875 101.813 60.6735 101.701 61.48C101.355 63.9852 99.043 65.735 96.5382 65.3885C90.0647 64.4849 84.3807 63.3419 79.4861 61.9594Z" fill="white" fill-opacity="0.32"/>
<path fill-rule="evenodd" clip-rule="evenodd" d="M79.4861 61.9594C68.0553 58.7312 53.6085 51.7443 54.0663 37.7038C54.1908 33.8767 55.6161 30.3575 57.9627 27.6722C59.6951 25.6899 61.9189 24.1642 64.4868 23.2988C63.0956 24.1227 61.8538 25.1632 60.7958 26.3739C58.4491 29.0592 57.0239 32.5784 56.8994 36.4055C56.442 50.4461 70.8884 57.4329 82.3192 60.6611C87.2142 62.0436 92.8983 63.1867 99.3713 64.0902C99.7112 64.1371 100.047 64.1454 100.376 64.1185C99.3974 65.0785 98.0012 65.591 96.5386 65.3885C90.0647 64.4849 84.3807 63.3419 79.4861 61.9594ZM90.1145 55.0493C91.3323 55.3286 92.5957 55.5951 93.9043 55.8487C92.9476 53.6573 90.9861 49.5599 89.966 47.7238C87.9343 44.066 85.8006 41.0088 83.869 38.382C79.2624 32.1181 74.8114 30.0205 71.4467 30.416C70.2518 30.5567 69.1905 31.0361 68.3368 31.7533C68.4285 31.7383 68.5206 31.7251 68.614 31.7143C71.9788 31.3183 76.4297 33.416 81.0363 39.6802C82.9679 42.307 85.1016 45.3647 87.1337 49.022C88.1531 50.8582 89.1579 52.8583 90.1145 55.0493Z" fill="white" fill-opacity="0.24"/>
<path d="M37.832 84.9226H37.6245L37.6245 85.1301L37.6249 167.539C37.6249 173.75 42.7054 178.83 48.9162 178.83H150.847C157.059 178.83 162.14 173.75 162.14 167.539V85.1301V84.9226H161.932H37.832Z" fill="white" fill-opacity="0.24" stroke="white" stroke-width="0.415044"/>
<path fill-rule="evenodd" clip-rule="evenodd" d="M155.637 85.1301V85.1301C159.114 85.1301 161.932 87.9487 161.932 91.4255V167.539C161.932 173.635 156.944 178.623 150.848 178.623H48.9167C45.869 178.623 43.0986 177.376 41.0894 175.368C41.5903 175.438 42.1016 175.475 42.6209 175.475H144.553C150.649 175.475 155.637 170.488 155.637 164.391V85.1301Z" fill="white" fill-opacity="0.24"/>
<g filter="url(#filter0_b_1553_2775)">
<path fill-rule="evenodd" clip-rule="evenodd" d="M29.8633 89.9484H169.901C173.126 89.9484 175.765 87.3099 175.765 84.085V66.4888C175.765 63.2639 173.126 60.6255 169.901 60.6255H29.8633C26.6384 60.6255 24 63.2639 24 66.4888V84.085C23.9996 87.3099 26.6384 89.9484 29.8633 89.9484Z" fill="white" fill-opacity="0.24"/>
</g>
<path fill-rule="evenodd" clip-rule="evenodd" d="M29.8636 89.9484H169.902C173.127 89.9484 175.765 87.3099 175.765 84.085V66.4888C175.765 63.2639 173.127 60.6255 169.902 60.6255H168.798C169.226 61.4386 169.47 62.3629 169.47 63.3411V80.9373C169.47 84.1622 166.831 86.8007 163.606 86.8007H24.6714C25.6555 88.668 27.617 89.9484 29.8636 89.9484Z" fill="white" fill-opacity="0.32"/>
<path fill-rule="evenodd" clip-rule="evenodd" d="M89.8594 60.1436H109.906V178.623H89.8594V60.1436Z" fill="white" fill-opacity="0.24"/>
<path fill-rule="evenodd" clip-rule="evenodd" d="M103.727 60.6255H109.906V178.623H103.727V60.6255Z" fill="white" fill-opacity="0.32"/>
<path fill-rule="evenodd" clip-rule="evenodd" d="M89.8594 60.6255H96.0385V178.623H89.8594V60.6255Z" fill="white" fill-opacity="0.32"/>
<path fill-rule="evenodd" clip-rule="evenodd" d="M156.28 31.8441L159.895 41.3665C160.004 41.6529 160.257 41.8363 160.563 41.8513L170.736 42.3472C171.428 42.3809 171.711 43.2525 171.171 43.6866L163.232 50.0679C162.994 50.2596 162.897 50.5572 162.977 50.8523L165.649 60.681C165.831 61.3496 165.09 61.888 164.51 61.5086L155.988 55.93C155.732 55.7623 155.419 55.7623 155.163 55.93L146.641 61.5086C146.061 61.888 145.32 61.3496 145.502 60.681L148.174 50.8519C148.254 50.5564 148.157 50.2592 147.919 50.0675L139.98 43.6866C139.44 43.2529 139.723 42.3809 140.415 42.3472L150.588 41.8513C150.894 41.8363 151.147 41.6525 151.256 41.3665L154.871 31.8441C155.116 31.2004 156.035 31.2004 156.28 31.8441Z" fill="white" fill-opacity="0.24"/>
<path fill-rule="evenodd" clip-rule="evenodd" d="M167.521 42.1904L170.736 42.3472C171.428 42.3809 171.711 43.2525 171.171 43.6866L163.232 50.0679C162.994 50.2596 162.897 50.5572 162.977 50.8523L165.65 60.6814C165.831 61.3496 165.09 61.8884 164.51 61.509L162.305 60.0655L159.758 50.6955C159.677 50.3999 159.774 50.1028 160.012 49.911L167.951 43.5297C168.49 43.0964 168.209 42.2273 167.521 42.1904ZM156.28 31.8441L159.895 41.3665C160.003 41.6504 160.253 41.8334 160.556 41.8509L157.343 41.6944C157.037 41.6794 156.785 41.4956 156.676 41.2096L153.996 34.1514L154.872 31.8441C155.116 31.2004 156.035 31.2004 156.28 31.8441ZM155.988 55.93C155.732 55.7623 155.419 55.7623 155.163 55.93L146.641 61.5086C146.061 61.888 145.32 61.3496 145.502 60.681L145.73 59.8397L153.433 54.7973C153.689 54.6297 154.002 54.6297 154.258 54.7973L155.988 55.93Z" fill="white" fill-opacity="0.32"/>
<path fill-rule="evenodd" clip-rule="evenodd" d="M86.4307 0.982749L90.0461 10.5051C90.1549 10.7915 90.4076 10.9749 90.7135 10.9899L100.887 11.4863C101.579 11.5199 101.862 12.3915 101.322 12.8256L93.3831 19.2065C93.1444 19.3983 93.0477 19.6959 93.1283 19.991L95.8003 29.8196C95.9821 30.4883 95.2404 31.0266 94.661 30.6472L86.1389 25.0686C85.8828 24.9009 85.5699 24.9009 85.3138 25.0686L76.7917 30.6472C76.2123 31.0266 75.4706 30.4883 75.6524 29.8196L78.3245 19.991C78.405 19.6954 78.3083 19.3983 78.0696 19.2065L70.1306 12.8256C69.5907 12.3919 69.8737 11.5199 70.5656 11.4863L80.7392 10.9903C81.0451 10.9754 81.2978 10.7915 81.4066 10.5055L85.022 0.983163C85.2669 0.339015 86.1862 0.339015 86.4307 0.982749Z" fill="white" fill-opacity="0.24"/>
<path fill-rule="evenodd" clip-rule="evenodd" d="M97.6714 11.3294L100.887 11.4863C101.579 11.5199 101.862 12.3915 101.322 12.8257L93.3832 19.2066C93.1446 19.3983 93.0478 19.6959 93.1284 19.991L95.8004 29.8197C95.9822 30.4879 95.2405 31.0266 94.6611 30.6473L92.456 29.2037L89.9084 19.8337C89.8279 19.5382 89.9246 19.241 90.1633 19.0493L98.1023 12.668C98.641 12.2355 98.36 11.3664 97.6714 11.3294ZM86.4308 0.9828L90.0462 10.5052C90.1542 10.7891 90.404 10.9721 90.7066 10.9895L87.4941 10.833C87.1882 10.8181 86.9355 10.6342 86.8267 10.3483L84.1472 3.29003L85.0234 0.9828C85.267 0.339067 86.1863 0.339067 86.4308 0.9828ZM86.139 25.0691C85.8829 24.9014 85.57 24.9014 85.3139 25.0691L76.7918 30.6477C76.212 31.027 75.4707 30.4887 75.6525 29.8201L75.8812 28.9792L83.584 23.9368C83.8401 23.7692 84.153 23.7692 84.4091 23.9368L86.139 25.0691Z" fill="white" fill-opacity="0.32"/>
<path fill-rule="evenodd" clip-rule="evenodd" d="M16.582 31.8441L20.1975 41.3665C20.3062 41.6529 20.559 41.8363 20.8648 41.8513L31.0384 42.3472C31.7303 42.3809 32.0134 43.2525 31.4738 43.6866L23.5348 50.0679C23.2962 50.2596 23.1995 50.5572 23.28 50.8523L25.952 60.681C26.1338 61.3496 25.3922 61.888 24.8128 61.5086L16.2906 55.93C16.0346 55.7623 15.7216 55.7623 15.4655 55.93L6.94343 61.5086C6.36403 61.888 5.62234 61.3496 5.80413 60.681L8.47618 50.8519C8.5567 50.5564 8.46 50.2592 8.22135 50.0675L0.282379 43.6866C-0.257594 43.2529 0.0258816 42.3809 0.717761 42.3472L10.8913 41.8513C11.1972 41.8363 11.45 41.6525 11.5587 41.3665L15.1742 31.8441C15.4182 31.2004 16.3375 31.2004 16.582 31.8441Z" fill="white" fill-opacity="0.24"/>
<path fill-rule="evenodd" clip-rule="evenodd" d="M27.8223 42.1904L31.0381 42.3472C31.73 42.3809 32.013 43.2525 31.4735 43.6866L23.5345 50.0679C23.2958 50.2596 23.1991 50.5572 23.2797 50.8523L25.9517 60.6814C26.1335 61.3496 25.3918 61.8884 24.8124 61.509L22.6073 60.0655L20.0597 50.6955C19.9792 50.3999 20.0759 50.1028 20.3146 49.911L28.2536 43.5297C28.7923 43.0964 28.5109 42.2273 27.8223 42.1904ZM16.5817 31.8441L20.1971 41.3665C20.305 41.6504 20.5549 41.8334 20.8575 41.8509L17.645 41.6944C17.3391 41.6794 17.0864 41.4956 16.9776 41.2096L14.2981 34.1514L15.1743 31.8441C15.4179 31.2004 16.3372 31.2004 16.5817 31.8441ZM16.2899 55.93C16.0338 55.7623 15.7209 55.7623 15.4648 55.93L6.94268 61.5086C6.36286 61.888 5.62159 61.3496 5.80338 60.681L6.03207 59.8397L13.7345 54.7973C13.9905 54.6297 14.3035 54.6297 14.5596 54.7973L16.2899 55.93Z" fill="white" fill-opacity="0.32"/>
<path fill-rule="evenodd" clip-rule="evenodd" d="M47.2351 125.885H158.493C159.78 125.885 160.83 126.935 160.83 128.222V189.511C160.83 190.798 159.78 191.848 158.493 191.848H47.2351C45.948 191.848 44.8979 190.798 44.8979 189.511V128.222C44.8979 126.935 45.9476 125.885 47.2351 125.885Z" fill="white" fill-opacity="0.24"/>
<path fill-rule="evenodd" clip-rule="evenodd" d="M155.879 125.885H158.493C159.78 125.885 160.83 126.935 160.83 128.222V189.511C160.83 190.798 159.78 191.848 158.493 191.848H47.2351C45.948 191.848 44.8979 190.798 44.8979 189.511V186.808H153.542C154.829 186.808 155.879 185.758 155.879 184.471V125.885Z" fill="white" fill-opacity="0.32"/>
<g filter="url(#filter1_b_1553_2775)">
<path fill-rule="evenodd" clip-rule="evenodd" d="M58.052 135.822H169.31C170.597 135.822 171.647 136.872 171.647 138.159V199.449C171.647 200.736 170.597 201.786 169.31 201.786H58.052C56.7649 201.786 55.7148 200.736 55.7148 199.449V138.159C55.7148 136.872 56.7649 135.822 58.052 135.822Z" fill="white" fill-opacity="0.24"/>
</g>
<path fill-rule="evenodd" clip-rule="evenodd" d="M166.696 135.822H169.31C170.597 135.822 171.647 136.872 171.647 138.159V199.449C171.647 200.736 170.597 201.786 169.31 201.786H58.052C56.7649 201.786 55.7148 200.736 55.7148 199.449V196.746H164.359C165.646 196.746 166.696 195.696 166.696 194.409V135.822Z" fill="white" fill-opacity="0.32"/>
<path fill-rule="evenodd" clip-rule="evenodd" d="M75.0609 145.76H152.301C152.849 145.76 153.305 146.162 153.374 146.706C153.801 150.1 156.49 152.79 159.884 153.216C160.428 153.285 160.83 153.741 160.83 154.289V183.32C160.83 183.868 160.428 184.324 159.884 184.393C156.49 184.819 153.801 187.509 153.374 190.903C153.305 191.446 152.849 191.849 152.301 191.849H75.0609C74.5126 191.849 74.0565 191.446 73.988 190.903C73.5613 187.509 70.8719 184.819 67.4785 184.393C66.9343 184.324 66.5317 183.868 66.5317 183.32V154.289C66.5317 153.74 66.9343 153.284 67.4785 153.216C70.8719 152.789 73.5613 150.1 73.988 146.706C74.0565 146.162 74.5126 145.76 75.0609 145.76Z" fill="black" fill-opacity="0.04"/>
<path fill-rule="evenodd" clip-rule="evenodd" d="M154.564 187.698C153.94 188.639 153.521 189.729 153.374 190.902C153.305 191.446 152.849 191.849 152.301 191.849H75.0609C74.5126 191.849 74.0565 191.446 73.988 190.902C73.5613 187.509 70.8719 184.819 67.4785 184.393C66.9343 184.324 66.5317 183.868 66.5317 183.32V154.288C66.5317 153.74 66.9343 153.284 67.4785 153.216C68.6522 153.068 69.7417 152.65 70.6826 152.026V179.169C70.6826 179.717 71.0852 180.174 71.6293 180.242C75.0231 180.668 77.7126 183.358 78.1389 186.752C78.2074 187.295 78.6635 187.698 79.2118 187.698H154.564V187.698Z" fill="black" fill-opacity="0.06"/>
<path fill-rule="evenodd" clip-rule="evenodd" d="M80.3296 164.568C82.6692 164.568 84.566 166.465 84.566 168.804C84.566 171.144 82.6692 173.041 80.3296 173.041C77.99 173.041 76.0933 171.144 76.0933 168.804C76.0933 166.465 77.99 164.568 80.3296 164.568ZM147.032 164.568C149.371 164.568 151.268 166.465 151.268 168.804C151.268 171.144 149.371 173.041 147.032 173.041C144.692 173.041 142.795 171.144 142.795 168.804C142.795 166.465 144.692 164.568 147.032 164.568ZM123.446 160.603C124.155 162.293 123.359 164.238 121.669 164.948C119.978 165.657 118.033 164.861 117.324 163.171C116.833 162.002 115.903 161.328 114.882 161.069C114.185 160.892 113.461 160.881 112.792 161.015C112.162 161.142 111.59 161.392 111.153 161.748C110.699 162.117 110.411 162.644 110.442 163.292C110.468 163.818 110.759 164.19 111.166 164.455C111.958 164.973 113.116 165.271 114.233 165.454C116.15 165.769 118.252 166.3 120.044 167.382C122.224 168.698 123.869 170.684 124.24 173.746C124.267 173.963 124.284 174.243 124.292 174.58C124.36 177.426 123.069 179.54 121.129 181.012C119.923 181.927 118.476 182.552 117.001 182.917V183.214C117.001 185.047 115.515 186.534 113.681 186.534C111.847 186.534 110.361 185.047 110.361 183.214V182.847C109.229 182.532 108.153 182.055 107.191 181.414C105.263 180.13 103.785 178.232 103.159 175.721C102.722 173.944 103.808 172.15 105.585 171.713C107.361 171.276 109.155 172.362 109.592 174.138C109.782 174.901 110.244 175.486 110.849 175.889C111.687 176.446 112.78 176.712 113.901 176.686C114.068 176.682 114.305 176.661 114.61 176.624C115.573 176.507 116.509 176.22 117.135 175.745C117.467 175.494 117.688 175.157 117.678 174.735L117.653 174.524C117.571 173.853 117.165 173.391 116.621 173.063C115.691 172.501 114.397 172.192 113.17 171.991C111.303 171.684 109.263 171.117 107.561 170.006C105.474 168.644 103.975 166.624 103.829 163.603C103.684 160.631 104.962 158.25 106.978 156.611C107.959 155.813 109.118 155.209 110.362 154.821V154.394C110.362 152.561 111.849 151.074 113.682 151.074C115.516 151.074 117.003 152.561 117.003 154.394V154.778C119.712 155.604 122.136 157.484 123.446 160.603Z" fill="white"/>
<defs>
<filter id="filter0_b_1553_2775" x="-17.5044" y="19.121" width="234.774" height="112.332" filterUnits="userSpaceOnUse" color-interpolation-filters="sRGB">
<feFlood flood-opacity="0" result="BackgroundImageFix"/>
<feGaussianBlur in="BackgroundImageFix" stdDeviation="20.7522"/>
<feComposite in2="SourceAlpha" operator="in" result="effect1_backgroundBlur_1553_2775"/>
<feBlend mode="normal" in="SourceGraphic" in2="effect1_backgroundBlur_1553_2775" result="shape"/>
</filter>
<filter id="filter1_b_1553_2775" x="43.4072" y="123.515" width="140.547" height="90.5793" filterUnits="userSpaceOnUse" color-interpolation-filters="sRGB">
<feFlood flood-opacity="0" result="BackgroundImageFix"/>
<feGaussianBlur in="BackgroundImageFix" stdDeviation="6.15385"/>
<feComposite in2="SourceAlpha" operator="in" result="effect1_backgroundBlur_1553_2775"/>
<feBlend mode="normal" in="SourceGraphic" in2="effect1_backgroundBlur_1553_2775" result="shape"/>
</filter>
</defs>
</svg>
